# xmcd
#
# Track frame offsets: 
#        150
#        24283
#        31342
#        43531
#        55603
#        69401
#        81088
#        94764
#        111952
#        140986
#        158380
#        183856
#        199865
#        220705
#        249287
#        278019
#        307258
#        323990
#
# Disc length: 4619 seconds
#
# Revision: 0
# Processed by: cddbd v1.4PL0 Copyright (c) Steve Scherf et al.
# Submitted via: ExactAudioCopy v0.90b4
#
DISCID=f1120912
DTITLE=Van Morrison - The Genuine Philosophers Stone
DYEAR=1975
DGENRE=Celtic
TTITLE0=Stormy Monday
TTITLE1=Don't Start Crying Now
TTITLE2=Here Comes The Night
TTITLE3=All By Myself
TTITLE4=Gloria
TTITLE5=One More Time
TTITLE6=I Gave My Love A Diamond
TTITLE7=Here Comes The Night
TTITLE8=Turn On Your Lovelight
TTITLE9=Mighty Like A Rose
TTITLE10=Bayou Girl
TTITLE11=The Way Young Lovers Do
TTITLE12=Ballerina
TTITLE13=Bayou Girl
TTITLE14=Magic Night
TTITLE15=I Need Your Kind Of Loving, part 1
TTITLE16=I Need Your Kind Of Loving, part 2
TTITLE17=Mona Mona
EXTD=
EXTT0=
EXTT1=
EXTT2=
EXTT3=
EXTT4=
EXTT5=
EXTT6=
EXTT7=
EXTT8=
EXTT9=
EXTT10=
EXTT11=
EXTT12=
EXTT13=
EXTT14=
EXTT15=
EXTT16=
EXTT17=
PLAYORDER=
